:SAMPLES-PER-SECOND 30
:FRAME-RANGE 1-744
:FULLY-SPECIFIED
:DEGREES
605
root  -100.641 38.7834 26.2626 174.471 14.326 -174.457
RightUpLeg  6.21904 0.866261 10.1713
RightLeg  -0.828996 -16.6656 0.803098
RightFoot  -4.64105 0.0325279 -1.09318
RightToes  5.82063e-011 0 -3.6325e-017
Spine  16.2383 0.862979 9.14029
Spine1  -1.03074 3.80575 -6.44014
HEad  6.10479 25.5993 -6.65959
LeftShoulder1  3.40501 -6.67554 -27.3746
LeftArm  9.81312 -48.0038 -18.5481
LeftForeArm  1.02053 -1.40974 -19.4837
LeftHand  -1.00584 -2.12125 15.6956
RightShoulder  8.43117 7.78439 64.1624
RightArm  8.52583 4.22433 -7.2367
RightForeArm  19.1712 -4.94412 15.8691
RightHand  1.19032 19.959 4.90455
LeftUpLeg  -5.94244 0.476893 13.5278
LeftLeg  39.6387 2.48762 2.58271
LeftFoot  -8.19487 0.111748 -2.27769
LeftToes  1.25507e-010 -3.78807e-010 5.71421e-011
606
root  -100.232 38.8855 25.7749 174.824 16.2625 -175.013
RightUpLeg  7.66472 1.28097 10.2995
RightLeg  -2.61085 -15.0802 0.880441
RightFoot  -4.77309 0.035778 -1.18734
RightToes  5.82063e-011 0 -3.6325e-017
Spine  16.5537 1.26196 8.67067
Spine1  -1.65934 4.07199 -7.15478
HEad  4.64992 27.8743 -8.30058
LeftShoulder1  3.40108 -6.7347 -27.1354
LeftArm  10.7829 -47.7704 -15.7902
LeftForeArm  2.65435 -2.21114 -19.3564
LeftHand  -0.970526 -3.18077 13.3556
RightShoulder  8.91052 8.5989 63.3708
RightArm  8.43214 4.66564 -7.66662
RightForeArm  19.9307 -2.86666 15.6113
RightHand  1.06183 20.2576 4.26394
LeftUpLeg  -8.00977 -0.261983 11.91
LeftLeg  35.395 3.44822 2.98915
LeftFoot  -8.25931 0.099616 -1.85963
LeftToes  1.25507e-010 -3.78807e-010 5.71421e-011
607
root  -99.8649 38.9932 25.265 175.046 18.4562 -175.709
RightUpLeg  9.06816 1.01995 9.80044
RightLeg  -4.00262 -12.5941 1.21264
RightFoot  -5.15623 0.0411008 -1.40734
RightToes  5.82063e-011 0 -3.6325e-017
Spine  16.7702 1.63622 8.21596
Spine1  -2.02643 4.37263 -7.92641
HEad  2.87469 29.3891 -10.1769
LeftShoulder1  3.36236 -6.65421 -27.0132
LeftArm  23.7992 -45.7328 -14.8497
LeftForeArm  -6.36083 -6.40716 -18.9714
LeftHand  -0.737074 -1.85804 11.9807
RightShoulder  9.28622 9.35119 62.3286
RightArm  8.05266 5.86309 -7.19041
RightForeArm  20.6905 -1.61962 15.3099
RightHand  0.851862 20.3386 3.31077
LeftUpLeg  -9.54035 -1.87931 10.3294
LeftLeg  29.8879 4.26026 2.98763
LeftFoot  -7.68032 0.106077 -1.87604
LeftToes  1.25507e-010 -3.78807e-010 5.71421e-011
608
root  -99.5356 39.0937 24.6885 175.13 20.583 -176.469
RightUpLeg  10.5702 0.795553 9.2433
RightLeg  -5.20005 -10.3138 1.09621
RightFoot  -5.51545 0.022852 -1.1837
RightToes  5.82063e-011 0 -3.6325e-017
Spine  16.7202 1.89991 7.80786
Spine1  -2.0945 4.60429 -8.6164
HEad  1.06589 30.2674 -12.1035
LeftShoulder1  3.37808 -6.64426 -27.2069
LeftArm  27.6941 -42.6942 -13.9807
LeftForeArm  -7.03362 -7.62715 -18.5979
LeftHand  -0.464955 -1.46786 8.03581
RightShoulder  9.88255 10.357 61.6143
RightArm  7.58613 6.98657 -6.85757
RightForeArm  20.6029 -0.475295 15.0653
RightHand  0.874931 20.4318 3.39899
LeftUpLeg  -10.5559 -4.55475 9.0474
LeftLeg  23.3424 4.4581 2.43816
LeftFoot  -6.39266 0.138692 -2.32107
LeftToes  1.25507e-010 -3.78807e-010 5.71421e-011
609
root  -99.2146 39.1692 24.0263 174.968 23.0523 -177.202
RightUpLeg  12.0891 0.652764 8.7069
RightLeg  -5.7285 -7.6968 0.453436
RightFoot  -6.05355 0.00749041 -1.05069
RightToes  5.82063e-011 0 -3.6325e-017
Spine  16.2341 2.08978 7.45536
Spine1  -1.43105 4.79118 -8.99499
HEad  -1.43581 30.3274 -14.1254
LeftShoulder1  3.38543 -6.26165 -28.6251
LeftArm  31.036 -38.6342 -12.7797
LeftForeArm  -8.75271 -8.62512 -18.2922
LeftHand  -0.186772 -0.978212 3.52279
RightShoulder  10.8225 11.8739 60.9068
RightArm  6.82483 8.30682 -6.21309
RightForeArm  20.5393 0.00734512 14.879
RightHand  0.957459 20.5629 3.74363
LeftUpLeg  -10.8877 -6.83067 8.21135
LeftLeg  16.1523 3.62799 1.82488
LeftFoot  -4.44246 0.219916 -3.20572
LeftToes  1.25507e-010 -3.78807e-010 5.71421e-011
610
root  -98.8828 39.1967 23.3089 174.786 25.3965 -177.725
RightUpLeg  13.7073 0.403023 8.17446
RightLeg  -6.1526 -5.14523 -0.0435903
RightFoot  -6.84255 -0.010467 -0.914054
RightToes  5.82063e-011 0 -3.6325e-017
Spine  16.0113 2.17107 7.14395
Spine1  -1.15462 4.894 -9.47438
HEad  -4.42985 29.7421 -15.9167
LeftShoulder1  3.42073 -6.05443 -29.7687
LeftArm  41.6246 -32.3395 -12.8605
LeftForeArm  -13.4498 -11.5105 -17.0908
LeftHand  -0.067028 -0.298739 1.41247
RightShoulder  11.6092 13.0904 60.5827
RightArm  6.33048 9.59797 -5.35099
RightForeArm  20.269 0.57315 14.7273
RightHand  0.956145 20.5528 3.73955
LeftUpLeg  -11.1035 -2.10097 6.28164
LeftLeg  9.32919 -4.03854 2.80447
LeftFoot  -3.32982 0.211436 -2.73366
LeftToes  1.25507e-010 -3.78807e-010 5.71421e-011
611
root  -98.5384 39.1825 22.5306 174.586 27.8669 -177.981
RightUpLeg  15.4021 0.294921 7.88479
RightLeg  -6.33864 -2.52119 -0.761538
RightFoot  -7.84802 -0.0228903 -0.99269
RightToes  5.82063e-011 0 -3.6325e-017
Spine  15.6445 2.23846 7.09989
Spine1  -0.514213 5.07506 -10.0024
HEad  -7.29066 29.1367 -17.057
LeftShoulder1  3.41711 -5.72684 -31.0146
LeftArm  57.43 -24.2482 -13.4557
LeftForeArm  -20.7923 -15.5981 -14.5593
LeftHand  -0.121925 -0.553265 2.45823
RightShoulder  12.4149 14.2251 60.6328
RightArm  5.85936 11.0606 -4.48956
RightForeArm  20.2347 1.03049 14.571
RightHand  1.04044 20.728 4.08044
LeftUpLeg  -11.5128 1.0957 5.30633
LeftLeg  3.77744 -7.82974 3.88561
LeftFoot  -3.99177 0.211192 -2.91494
LeftToes  1.25507e-010 -3.78807e-010 5.71421e-011
612
root  -98.1832 39.1205 21.6892 174.363 30.3824 -178.124
RightUpLeg  16.8693 0.257443 7.64259
RightLeg  -5.73555 -0.367791 -1.54924
RightFoot  -9.30203 -0.0479744 -0.843608
RightToes  5.82063e-011 0 -3.6325e-017
Spine  15.7577 2.4896 6.9448
Spine1  -0.57544 5.33741 -10.207
HEad  -9.01909 29.0244 -17.6228
LeftShoulder1  3.39232 -5.37515 -32.2061
LeftArm  68.4627 -14.2759 -14.7021
LeftForeArm  -26.9852 -17.7835 -12.8734
LeftHand  -0.15711 -0.809181 3.04428
RightShoulder  13.0065 14.9941 60.8544
RightArm  6.58786 11.7068 -3.8259
RightForeArm  19.999 2.55225 14.2747
RightHand  1.06344 21.0264 4.1263
LeftUpLeg  -11.8826 1.1732 5.30253
LeftLeg  -0.717898 -6.76673 4.43635
LeftFoot  -4.35201 0.198355 -2.81994
LeftToes  1.25507e-010 -3.78807e-010 5.71421e-011
613
root  -97.8196 39.0389 20.7791 174.142 32.5668 -178.305
RightUpLeg  18.402 -0.0401655 7.06398
RightLeg  -5.26829 1.98054 -2.1587
RightFoot  -10.7279 -0.0690526 -0.666867
RightToes  5.82063e-011 0 -3.6325e-017
Spine  15.5781 2.70585 6.73594
Spine1  -0.426496 5.57295 -10.4686
HEad  -10.1517 28.9722 -17.3498
LeftShoulder1  3.32987 -5.01317 -33.093
LeftArm  72.8959 -3.48374 -16.4944
LeftForeArm  -29.3085 -17.9289 -12.8799
LeftHand  -0.233923 -1.56479 4.06506
RightShoulder  13.3572 15.3208 61.3503
RightArm  8.09758 12.1936 -3.1698
RightForeArm  19.2627 4.85254 13.7313
RightHand  1.18691 20.9566 4.67704
LeftUpLeg  -12.7591 1.64552 5.50245
LeftLeg  -2.96601 -6.3545 4.10805
LeftFoot  -4.78816 0.185431 -2.73658
LeftToes  1.25507e-010 -3.78807e-010 5.71421e-011
614
root  -97.4389 38.8826 19.7682 173.678 34.3213 -178.537
RightUpLeg  20.0196 -0.146953 6.59694
RightLeg  -4.27052 3.5489 -2.97409
RightFoot  -12.7387 -0.0946402 -0.692649
RightToes  5.82063e-011 0 -3.6325e-017
Spine  15.264 2.89223 6.43443
Spine1  -0.0917529 5.72823 -10.5444
HEad  -10.7236 27.6921 -16.4846
LeftShoulder1  3.273 -4.66465 -34.0548
LeftArm  64.7764 7.17482 -18.7645
LeftForeArm  -22.3056 -14.5142 -15.5457
LeftHand  -0.306976 -2.1192 4.94011
RightShoulder  13.3025 15.0397 61.95
RightArm  10.9433 12.1587 -2.41499
RightForeArm  16.6136 8.54662 12.5471
RightHand  1.29485 21.3517 5.06041
LeftUpLeg  -13.2523 1.43723 5.3093
LeftLeg  -4.1434 -5.15767 4.25178
LeftFoot  -5.75455 0.143876 -2.24024
LeftToes  1.25507e-010 -3.78807e-010 5.71421e-011
